<?xml version="1.0" standalone="no"?><!DOCTYPE svg PUBLIC "-//W3C//DTD SVG 1.1//EN" "http://www.w3.org/Graphics/SVG/1.1/DTD/svg11.dtd">
<svg t="1498736210203" class="icon" style="" viewBox="0 0 1024 1024" version="1.1" xmlns="http://www.w3.org/2000/svg" p-id="874" xmlns:xlink="http://www.w3.org/1999/xlink" width="200" height="200">
  <defs>
    <style type="text/css"></style>
  </defs>
  <path d="M590.975 94.5h21.273l206.727 242-5 14.448h-178L605.096 336.5l-26.121-41z" fill="#FFFFFF" p-id="875"></path>
  <path
    d="M822.554 344.324c-2.251-6.11-5.582-11.552-9.574-16.233L624.514 107.144c-4.879-5.722-11.049-11.188-18.327-14.546C598.91 89.24 591.252 87 583.731 87H225.924c-13.705 0-27.096 5.9-37.553 16.356C177.914 113.813 173 128.19 173 141.895v728.317c0 13.705 4.914 26.528 15.371 36.985S212.219 922 225.924 922h546.237c13.705 0 27.554-4.346 38.01-14.803C820.628 896.74 826 883.917 826 870.211v-507.37c0-6.152-1.195-12.408-3.446-18.517z m-19.408-10.579c-0.103-0.278-0.266-0.745-0.373-0.745H646.896c-12.514 0-23.528-0.884-33.075-10.431-9.548-9.548-12.821-18.171-12.821-30.685V105.976c2 0.556 3.188 0.983 4.806 1.73 6.644 3.067 12.21 7.229 16.665 12.454l172.024 200.467c3.463 4.06 6.238 12.373 8.278 12.373h0.637c-0.112 0-0.145 1.068-0.264 0.745z"
    fill="#FBFFF3" p-id="876"></path>
  <path
    d="M906.869 574.488C896.412 564.031 882.261 558 868.556 558H837V362.841c0-1.402-0.162-2.808-0.052-4.22 0.403-5.172 0.808-12.253-2.225-20.48-2.38-6.459-5.14-13.775-10.84-20.454L636.067 96.72c-6.6-7.745-14.222-11.176-20.932-14.199l-2.561-1.161c-7.494-3.462-14.601-3.907-19.951-3.907-1.621 0-3.245-0.769-4.882-0.722-1.328 0.042-2.664-0.732-4.008-0.732H225.924c-22.681 0-40.124 6.772-51.886 18.529C163.301 105.276 151 121.091 151 141.895v728.317c0 17.514 9.028 36.792 23.043 50.818 14.021 14.01 34.366 21.97 51.881 21.97h546.237c20.804 0 36.091-11.234 46.843-21.976C830.755 909.268 837 892.898 837 870.211V793h31.556c13.705 0 27.856-4.11 38.313-14.567S923 755.39 923 741.685V613.158c0-13.705-5.674-28.214-16.131-38.67zM601 111.305l1.005 0.503c5.376 2.427 7.777 2.745 9.613 4.895L796.089 333H640.575c-9.387 0-20.135-3.948-27.551-11.369-7.369-7.364-12.024-17.405-12.024-26.886v-183.44z m204 758.906c0 9.523-1.792 21.294-8.653 28.155-9.576 9.576-17.058 12.634-24.186 12.634H225.924c-8.849 0-20.941-4.846-28.723-12.628C189.414 890.585 184 879.06 184 870.211V141.895c0-7.128 3.625-15.138 13.196-24.708C204.062 110.32 216.4 108 225.924 108H569v186.745c0 18.111 7.884 36.066 21.367 49.543C603.901 357.823 622.564 365 640.575 365H805v193H429.424c-13.705 0-27.346 6.031-37.803 16.488C381.164 584.944 376 599.453 376 613.158v128.526c0 13.705 5.164 26.292 15.621 36.749S415.719 793 429.424 793H805v77.211z"
    fill="#8FB948" p-id="877"></path>
  <path
    d="M578.974 706.387v19.047h-37.293c-7.044 0-12.436-0.366-16.17-1.119-13.121-2.563-22.462-9.863-28.011-21.923-3.629-8.117-5.444-18.147-5.444-30.102 0-14.298 2.777-25.929 8.326-34.893 4.053-6.506 9.471-11.254 16.249-14.246 6.773-2.981 15.496-4.477 26.17-4.477h36.174v19.047h-33.612c-10.14 0-17.556 2.719-22.253 8.158-3.948 4.487-5.92 12.593-5.92 24.329 0 15.804 3.039 26.149 9.121 31.054 4.267 3.42 10.941 5.125 20.009 5.125h32.654zM594.82 618.674h45.3c11.312 0 20.061 1.119 26.253 3.357 11.417 4.163 19.047 11.798 22.891 22.896 2.882 8.535 4.32 17.656 4.32 27.362 0 9.612-1.386 18.681-4.163 27.216-2.777 8.755-7.363 15.208-13.765 19.371-4.058 2.563-8.509 4.299-13.367 5.198-4.853 0.91-12.243 1.36-22.169 1.36h-45.3v-106.76z m22.734 19.047v68.667h22.566c9.926 0 16.808-2.186 20.647-6.558 2.348-2.782 4.247-6.673 5.685-11.683 1.443-5.021 2.16-10.355 2.16-16.013 0-6.297-0.852-12.06-2.557-17.29-1.71-5.219-3.954-9.121-6.725-11.683-4.058-3.629-10.46-5.439-19.209-5.439h-22.567v-0.001zM732.159 684.935v40.499h-22.734v-106.76h52.182c14.941 0 25.343 1.914 31.216 5.763 4.053 2.563 7.175 5.951 9.361 10.156 2.186 4.226 3.284 8.838 3.284 13.848 0 10.146-2.563 17.98-7.683 23.534-3.206 3.305-7.421 5.815-12.646 7.52 4.158 1.496 7.306 3.075 9.44 4.728s4.058 4.079 5.763 7.28c1.281 2.563 2.212 5.021 2.803 7.364 0.586 2.343 1.041 5.815 1.36 10.407 0.638 7.677 1.496 13.064 2.563 16.16h-25.453c-0.748-2.448-1.548-7.52-2.401-15.208-0.533-6.182-1.626-10.93-3.279-14.246-1.658-3.305-4.137-5.92-7.447-7.834-4.158-2.249-10.188-3.316-18.084-3.211h-18.245z m0-19.047h31.849c5.334 0 9.126-0.795 11.364-2.395 3.415-2.353 5.125-6.453 5.125-12.332 0-6.506-2.563-10.669-7.682-12.478-1.815-0.648-4.749-0.962-8.807-0.962h-31.849v28.167z"
    fill="#FFFFFF" p-id="878"></path>
  <path
    d="M373.442 343.695l-35.343 35.332c0.376 1.925 0.397 3.933-0.147 5.941-1.799 6.714-8.493 10.752-15.208 9.413l-1.663 1.673-7.207-7.217 0.325-0.334c-1.851-2.971-2.552-6.652-1.579-10.313 1.882-6.988 9.068-11.15 16.066-9.268 1.286 0.335 2.437 0.921 3.514 1.591l24.308-24.309c-13.963 3.661-29.035 3.849-43.972-0.146a85.697 85.697 0 0 1-27.686-13.054c-3.902 1.883-8.421 2.489-12.929 1.297-9.967-2.678-15.888-12.928-13.22-22.907 2.667-9.978 12.917-15.898 22.896-13.22 9.978 2.678 15.898 12.928 13.22 22.906-0.292 1.088-0.711 2.093-1.171 3.075 6.578 4.415 13.953 7.887 22.049 10.063 16.599 4.456 33.344 2.741 47.998-3.556-1.214-4.08-1.422-8.535-0.241-12.97 3.432-12.802 16.6-20.396 29.403-16.965 1.475 0.398 2.855 0.941 4.173 1.569 3.891-6.129 7.029-12.864 9.005-20.249 5.021-18.722 2.249-37.612-6.17-53.489-3.149 0.878-6.538 1.045-9.916 0.125-9.968-2.678-15.888-12.907-13.221-22.885 2.667-9.979 12.918-15.899 22.896-13.221 9.978 2.678 15.899 12.928 13.221 22.885-0.607 2.239-1.632 4.247-2.908 6.025 10.292 18.576 13.849 40.855 8.127 62.988l17.561-17.384c-1.412-2.782-1.883-6.045-1.014-9.288 1.872-6.986 9.069-11.128 16.055-9.267 6.997 1.883 11.15 9.058 9.268 16.066-1.863 6.986-9.058 11.129-16.045 9.267-0.167-0.042-0.292-0.125-0.45-0.167l-36.943 36.943c3.713 5.544 5.199 12.531 3.336 19.476-3.431 12.802-16.588 20.416-29.391 16.986-2.625-0.714-4.895-1.969-6.997-3.412z m28.271-15.752c2.238-8.326-2.709-16.882-11.024-19.099-8.325-2.238-16.882 2.698-19.119 11.024-0.628 2.364-0.628 4.706-0.199 6.945 0.335 2.511 1.914 5.105 1.914 5.105a15.622 15.622 0 0 0 9.319 7.07c8.326 2.217 16.881-2.72 19.109-11.045z"
    fill="#8FB948" p-id="879"></path>
</svg>
